HIERARCHY
ROOT Hips
{
  OFFSET 265.287 66.7526 -254.649
  CHANNELS 6 Xposition Yposition Zposition Zrotation Xrotation Yrotation
  JOINT LeftUpLeg
  {
    OFFSET 8.64259 1.95398 -2.38835
    CHANNELS 3 Zrotation Xrotation Yrotation
    JOINT LeftLeg
    {
      OFFSET 43.7702 0 0
      CHANNELS 3 Zrotation Xrotation Yrotation
      JOINT LeftFoot
      {
        OFFSET 40.6238 0 0
        CHANNELS 3 Zrotation Xrotation Yrotation
        JOINT LeftToeBase
        {
          OFFSET 12.7242 0 0
          CHANNELS 3 Zrotation Xrotation Yrotation
          End Site
          {
            OFFSET 0 0 0
          }
        }
      }
    }
  }
  JOINT RightUpLeg
  {
    OFFSET -8.2249 1.95398 -2.59336
    CHANNELS 3 Zrotation Xrotation Yrotation
    JOINT RightLeg
    {
      OFFSET 43.5653 0 0
      CHANNELS 3 Zrotation Xrotation Yrotation
      JOINT RightFoot
      {
        OFFSET 40.6238 0 0
        CHANNELS 3 Zrotation Xrotation Yrotation
        JOINT RightToeBase
        {
          OFFSET 12.7242 0 0
          CHANNELS 3 Zrotation Xrotation Yrotation
          End Site
          {
            OFFSET 0 0 0
          }
        }
      }
    }
  }
  JOINT Spine
  {
    OFFSET 0.165834 0.87714 6.61349
    CHANNELS 3 Zrotation Xrotation Yrotation
    JOINT Spine1
    {
      OFFSET 7.38963 1.71661e-005 0
      CHANNELS 3 Zrotation Xrotation Yrotation
      JOINT Spine2
      {
        OFFSET 11.9445 1.14441e-005 0
        CHANNELS 3 Zrotation Xrotation Yrotation
        JOINT Spine3
        {
          OFFSET 14.7254 4.19617e-005 0
          CHANNELS 3 Zrotation Xrotation Yrotation
          JOINT Spine4
          {
            OFFSET 10.9679 0 0
            CHANNELS 3 Zrotation Xrotation Yrotation
            JOINT RightShoulder
            {
              OFFSET 2.46616 -1.6653 3.69651
              CHANNELS 3 Zrotation Xrotation Yrotation
              JOINT RightArm
              {
                OFFSET 13.0012 0 0
                CHANNELS 3 Zrotation Xrotation Yrotation
                JOINT RightForeArm
                {
                  OFFSET 28.7848 1.52588e-005 0
                  CHANNELS 3 Zrotation Xrotation Yrotation
                  JOINT RightHand
                  {
                    OFFSET 26.5688 1.52588e-005 0
                    CHANNELS 3 Zrotation Xrotation Yrotation
                    End Site
                    {
                      OFFSET 0 0 0
                    }
                  }
                }
              }
            }
            JOINT LeftShoulder
            {
              OFFSET 2.38034 -1.29275 -3.7523
              CHANNELS 3 Zrotation Xrotation Yrotation
              JOINT LeftArm
              {
                OFFSET 16.3182 6.10351e-005 0
                CHANNELS 3 Zrotation Xrotation Yrotation
                JOINT LeftForeArm
                {
                  OFFSET 27.0901 0 0
                  CHANNELS 3 Zrotation Xrotation Yrotation
                  JOINT LeftHand
                  {
                    OFFSET 24.5451 1.52588e-005 0
                    CHANNELS 3 Zrotation Xrotation Yrotation
                    End Site
                    {
                      OFFSET 0 0 0
                    }
                  }
                }
              }
            }
            JOINT Neck
            {
              OFFSET 5.0226 -0.0266342 0
              CHANNELS 3 Zrotation Xrotation Yrotation
              JOINT Head
              {
                OFFSET 6.69364 2.86102e-005 0
                CHANNELS 3 Zrotation Xrotation Yrotation
                End Site
                {
                  OFFSET 0 0 0
                }
              }
            }
          }
        }
      }
    }
  }
}
MOTION
Frames:	18
Frame Time:	0.0416667
-144.241 88.8847 153.603 -86.3623 -37.7957 -80.1976 -174.579 40.0357 92.3415 -20.9631 10.9942 0.295502 35.0431 -9.29167 0.169182 49.7085 -6.93338 -5.47678 178.49 -14.6015 89.1596 -76.1205 -19.3384 -5.8787 39.4354 9.93664 14.0101 41.966 -1.96717 1.81214 1.34553 8.62771 -90.6957 9.63268 2.36837 -1.56417 -2.03723 2.29725 -1.66692 -24.5872 2.72894 -0.779696 -4.57456 2.72894 -0.779706 101.459 -47.2481 -83.3037 15.4629 -19.0449 -3.65209 -1.29009 4.12673 -68.9903 -9.27752 0.172568 -7.67111 -87.9138 -51.1388 81.8189 -34.6866 30.8807 31.8001 -1.5504 16.7811 -23.3031 12.1263 -0.493906 -7.47174 -0.848299 0.263087 -8.9409 -5.72683 1.22119 11.8934 
-161.667 85.6898 171.867 -91.4976 -42.9059 -89.5598 -171.211 34.1485 81.6751 -47.5369 20.4094 -3.0129 59.1739 4.15458 31.3035 36.2009 -2.01092 -6.51503 177.466 0.364013 83.3012 -116.179 -16.6842 -3.96426 37.5327 9.71442 6.99384 40.7837 -1.72308 -1.34737 0.482668 8.81049 -89.9032 9.25257 1.00603 0.118892 -2.41799 1.01029 0.0744921 -24.9558 0.923807 0.415789 -4.94319 0.923788 0.415776 102.507 -51.7716 -81.6459 23.2069 -10.1803 6.75356 2.71302 3.68069 -51.9787 -12.9516 -0.013999 -5.21496 -85.547 -53.4525 85.6481 -20.7562 30.3637 15.1438 1.17921 13.2345 -26.1289 18.8308 -0.250059 -5.22217 -1.56745 1.50427 -10.7679 -4.37628 2.75032 12.4138 
-177.736 83.4536 188.119 -93.1792 -50.3548 -97.1247 -175.036 24.0168 76.2813 -62.197 22.0311 -1.8949 66.7815 8.2893 26.0591 48.3243 -6.0719 -0.28265 -173.232 29.1411 80.3039 -128.753 -20.9842 -2.91594 36.935 11.3229 15.8141 35.6722 -1.1355 2.91424 -1.36287 8.88761 -89.0162 9.11425 -2.27843 2.10856 -2.55636 -2.18344 2.20678 -25.1032 -2.80671 1.32606 -5.09058 -2.80672 1.32605 95.854 -56.1905 -91.2968 24.5122 -4.78044 7.13439 5.99957 11.7916 -17.2381 -15.1591 -0.363502 -2.13994 -78.765 -53.6656 95.5525 -6.68687 16.8861 -10.5511 7.46407 10.4875 -30.4304 24.9357 -0.0577567 -4.17948 -9.76118 3.68835 -16.8426 8.04123 7.07016 23.8288 
-195.398 86.3187 206.33 -100.729 -57.4143 -99.3555 -173.82 1.09626 89.1374 -53.9786 26.7721 1.31968 61.2373 3.50761 11.1791 52.5505 -7.81788 -3.91099 -177.514 40.3874 81.8404 -103.994 -19.5726 -3.59233 46.3235 7.63288 8.30154 39.6282 -1.67956 2.31023 -2.91827 9.15972 -89.3633 8.61504 -5.54073 1.60783 -3.04639 -5.46457 1.85066 -25.6708 -5.76765 -0.136651 -5.65812 -5.76765 -0.136643 88.6554 -54.267 -102.06 25.7292 2.24562 16.292 1.1266 -8.56941 -4.19622 -10.364 -0.527749 0.626163 -73.8699 -44.9171 103.273 -12.29 4.04332 -19.3548 14.773 2.61649 -52.9105 25.6101 -0.673085 -6.73563 -22.4589 5.83072 -17.3534 27.0522 12.3112 27.1417 
-212.667 90.4651 224.795 -104.094 -66.6846 -103.393 -177.623 -12.0775 93.6724 -45.3555 24.5239 8.17471 41.8708 -5.83028 0.913496 55.4961 -7.6953 3.85695 175.354 36.9591 78.1935 -55.4237 -8.38808 -1.85279 50.2455 6.10116 13.9611 41.4314 -1.85687 1.68739 -4.60905 9.14174 -89.4316 8.66504 -8.94436 1.70369 -2.97648 -8.86068 2.09867 -25.7601 -9.03927 -1.08584 -5.7475 -9.03929 -1.08584 83.6211 -49.0518 -111.056 27.5849 5.67838 16.6771 0.974144 -9.88615 -0.235027 -10.169 0.232678 -8.20393 -71.1566 -32.8415 109.535 -16.6411 -5.13267 -19.497 20.6145 -3.92578 -79.4899 15.6279 -0.975535 -9.84461 -31.7082 8.19446 -15.9349 41.168 15.802 23.7058 
-229.167 89.3835 242.959 -95.5637 -64.6242 -104.626 175.503 -8.00862 82.4096 -64.297 8.88774 4.34164 46.222 -2.76394 3.06467 48.4812 -5.66364 5.58386 176.801 35.3074 70.6562 -15.3303 -11.8115 -1.84798 30.8941 13.4215 22.4135 67.7787 -4.71643 4.06615 -4.89213 9.11813 -88.7695 8.76898 -9.21421 3.0435 -2.87361 -9.07133 3.44887 -25.6733 -9.69911 0.108202 -5.66062 -9.69909 0.1082 82.2506 -41.9926 -115.949 32.323 3.79983 3.51376 1.54354 -2.26775 0.00082462 -9.6049 0.652267 -13.7253 -68.9645 -26.8522 115.075 -18.1623 -24.0161 -15.6104 17.3204 -1.84815 -91.1426 24.5896 0.146713 -3.38032 -16.997 8.91782 -20.2861 32.2297 16.2651 23.0125 
-242.843 82.6564 261.547 -92.8305 -45.0703 -138.206 -172.35 -2.17791 45.7358 -90.6678 5.4063 -9.1536 45.966 -0.288085 16.6859 45.4213 -5.12493 0.231595 -159.535 54.8276 33.672 -48.2956 -33.3994 -11.5951 39.7428 10.8734 22.739 57.4057 -3.01485 5.5768 -4.64542 9.38318 -84.4779 8.20165 -6.8583 11.2911 -3.504 -6.3586 11.5776 -25.9143 -9.92001 8.73082 -5.90166 -9.92 8.73082 83.7997 -34.9192 -116.494 33.488 0.918085 -15.5652 0.863006 0.0463715 0.000289917 -7.55034 0.329764 -11.0704 -68.7756 -23.6351 116.346 -24.9837 -38.273 -15.2785 15.8721 2.3556 -69.0118 21.1004 -0.699707 -7.3041 38.2553 -4.70072 -33.3909 -19.0428 7.74763 30.0207 
-259.021 79.9013 276.936 -93.9133 -39.2311 -148.988 -153.592 3.59715 38.5035 -105.002 16.8065 -6.58226 44.1209 -1.37764 20.659 47.1504 -5.67832 -0.337526 -144.429 44.2875 24.2166 -92.0329 -36.2969 -26.2255 64.881 -0.222791 -6.4983 39.7789 -1.69442 -1.55021 -5.09597 10.7069 -83.0562 5.67708 -7.29104 13.8088 -6.05032 -6.68258 14.1089 -28.3387 -11.0804 11.0247 -8.32606 -11.0804 11.0247 86.1452 -29.4831 -114.741 33.9664 3.19529 -38.8487 -3.24493 -6.47713 0.482081 -5.99475 -0.0878994 -3.54789 -72.3127 -15.118 110.985 -38.0385 -35.1416 -12.53 19.0632 6.11866 -40.9537 19.0607 -0.867107 -8.50764 77.6006 -22.5629 -36.152 -53.8878 -1.08616 30.372 
-273.286 82.8457 291.867 -100.689 -37.5793 -162.905 -152.346 14.67 30.956 -82.5484 16.784 -16.4522 48.1283 -1.15658 18.9629 46.7329 -5.61783 -2.11916 -157.917 33.5878 11.75 -94.5252 -38.6389 -27.8945 70.6219 -3.58902 0.761572 52.3656 -3.25237 1.49454 -6.25005 11.3164 -81.4556 4.59406 -9.01371 16.8446 -7.15964 -8.27483 17.2114 -29.3374 -13.6175 13.4395 -9.32477 -13.6175 13.4395 87.311 -24.2598 -115.095 36.1841 1.03496 -55.1926 -4.94323 7.92585 -5.46477 -7.70719 0.0192277 -5.06796 -75.0684 -1.75717 106.306 -54.9731 -21.8686 -7.72233 19.2498 8.84563 -24.4481 7.37222 -0.307435 -6.6876 68.308 -28.9674 -53.0669 -50.2158 3.26562 36.1716 
-287.306 84.718 305.607 -109.549 -31.8151 -173.404 -171.236 14.6687 30.0174 -31.1192 9.69429 -20.2318 58.936 2.83946 31.4064 23.3949 1.68584 0.011724 -176.358 26.5904 0.852607 -85.6619 -36.2265 -27.7404 65.4913 3.4976 17.3297 53.2682 -2.5806 9.236 -6.77922 12.1104 -80.0689 3.03164 -9.64266 19.3059 -8.75288 -8.80054 19.692 -30.7554 -14.9347 15.6428 -10.7427 -14.9347 15.6428 88.5905 -19.8659 -114.738 39.8289 -2.02229 -62.9311 -3.16742 10.9296 -18.2815 0.0773714 -0.0685757 -11.8308 -77.2782 4.1894 98.9638 -62.1239 -14.9889 -4.46987 19.8808 16.7223 -17.5387 -0.085016 -0.136191 -6.65584 52.7321 -26.9665 -72.1336 -45.9791 10.1958 41.8649 
-301.05 83.8462 322.457 -111.808 -32.5612 -179.656 178.891 24.6394 23.573 -1.42116 -0.679354 -3.67287 56.2032 -7.11792 23.987 17.3251 1.69837 8.94425 -179.47 27.3485 -15.5951 -100.378 -47.8673 -33.0065 55.6113 6.72227 4.66181 48.7643 -3.81506 -6.53228 -7.30849 12.1472 -79.3267 3.02015 -10.4129 20.7422 -8.78152 -9.51093 21.156 -30.7043 -16.0856 16.8118 -10.6916 -16.0856 16.8118 90.239 -15.4882 -113.411 47.3383 -1.10682 -62.5353 -0.566335 7.86491 -36.428 7.03706 -1.95026 -32.9692 -79.1028 5.32787 91.1455 -63.5556 -12.1616 -2.24618 18.3784 18.3602 -16.8034 -10.31 0.223939 -8.87002 40.5959 -24.0576 -89.7277 -45.5525 10.9133 54.702 
-315.754 80.8164 341.01 -108.938 -34.1169 -179.49 -177.248 37.0822 31.2243 -1.37954 -9.76698 -13.8941 55.1813 -3.01205 22.3994 27.0573 -1.43114 15.5586 -177.722 31.8445 -32.4272 -132.911 -64.6823 -47.6625 58.5663 -10.4884 -54.2565 74.7593 4.57511 20.3766 -7.52478 12.3041 -79.4573 2.74585 -10.9184 20.4314 -9.04719 -10.0287 20.8679 -31.0497 -16.4794 16.3534 -11.037 -16.4794 16.3534 93.1097 -7.58707 -110.778 57.2203 4.88335 -56.2142 -19.546 -7.97118 -63.2694 11.4408 -5.96889 -54.8242 -80.3053 2.32887 86.9648 -60.4571 -9.38832 -6.54381 16.6723 16.8478 -16.4705 -16.3723 0.641377 -10.3925 42.4447 -31.2082 -96.6686 -51.902 4.47584 61.7111 
-330.578 73.7559 358.208 -106.422 -34.4541 179.491 -173.451 46.5925 33.6797 -3.75431 -16.5064 -16.2955 53.446 -3.97065 20.5092 34.9231 -2.94407 19.6469 -176.16 38.2108 -55.9777 -98.3706 -55.7073 -28.6566 60.6132 -37.3692 -114.733 106.624 -2.87135 15.5305 -7.78856 12.4416 -79.5794 2.51398 -11.5109 20.1413 -9.26993 -10.6326 20.6041 -31.3592 -16.9619 15.8873 -11.3466 -16.9619 15.8873 95.7676 1.00025 -108.169 67.2313 12.3013 -42.9608 -66.8778 2.70078 -92.2913 6.18175 -4.17638 -69.6198 -81.8913 -1.74798 82.828 -51.4915 -4.54231 -11.649 12.391 11.3236 -11.2111 -14.0892 0.470105 -9.82307 40.3308 -34.4799 -105.494 -52.4201 -3.35379 74.9658 
-344.589 66.7432 373.287 -104.791 -34.6954 178.508 -170.766 54.0892 31.7483 -3.17685 -22.6979 -7.95361 50.1691 -8.98733 15.8654 40.4479 -3.65723 22.3599 -171.086 39.2532 -82.4613 -93.4788 -61.3894 -32.3269 58.5464 -29.5385 -132.521 98.5715 -9.438 2.38952 -7.92528 12.4363 -79.6489 2.5481 -11.8076 20.0069 -9.2313 -10.9346 20.483 -31.3635 -17.2065 15.6641 -11.3508 -17.2065 15.6641 97.2055 6.71756 -107.232 71.489 19.1914 -28.3295 -78.7119 25.4874 -100.766 1.83979 -1.63116 -71.301 -83.6464 -5.18466 78.6121 -38.1818 3.87473 -19.6887 6.01289 -0.473679 0.00904877 -9.37286 0.157256 -8.41921 28.1573 -23.3252 -121.144 -41.9307 -0.225194 98.7097 
-356.76 60.2609 385.312 -103.726 -34.9222 177.676 -170.532 59.4609 32.4058 -0.5471 -27.6274 -1.16142 45.9411 -12.7793 11.8135 44.335 -4.00162 24.226 -163.612 40.564 -105.965 -126.524 -73.9991 -75.936 59.1836 -12.2729 -130.886 97.3488 -13.8821 -6.24086 -7.98265 12.3756 -79.6933 2.68092 -11.9284 19.9438 -9.09654 -11.0579 20.4253 -31.2471 -17.3035 15.5649 -11.2345 -17.3035 15.5649 98.0287 10.548 -107.263 72.0913 25.6062 -15.4133 -74.0028 41.4572 -107.773 0.600444 -0.80682 -70.3169 -84.8487 -7.19408 75.9565 -22.5058 11.3539 -30.0169 -1.31925 -12.3313 -0.00201487 -9.37375 0.0975336 -7.44319 16.9011 -1.82136 -128.724 -29.3818 15.0637 119.983 
-366.943 54.9976 394.953 -102.986 -35.1084 177.02 -171.316 63.327 34.1661 2.01943 -31.1749 4.10271 42.1909 -15.4243 8.46859 47.1275 -4.17079 25.543 -143.197 42.6079 -136.854 172.517 -53.6934 -165.666 51.5915 14.0169 -116.12 97.4694 -19.0249 -15.5528 -7.9986 12.3067 -79.7232 2.82347 -11.9601 19.9125 -8.95321 -11.0909 20.3955 -31.1102 -17.3248 15.5244 -11.0975 -17.3248 15.5244 98.5563 13.177 -107.654 70.538 31.9473 -4.9786 -62.3201 50.371 -119.245 0.207896 -0.546612 -69.3471 -85.6803 -8.44665 74.1951 -3.85929 19.854 -38.9797 -13.6213 -23.901 -0.0221643 -9.34401 0.055881 -6.77309 5.31471 21.6662 -125.183 -18.5627 37.806 131.938 
-375.26 50.9412 402.757 -102.437 -35.2508 176.535 -172.751 65.9786 36.4673 4.42931 -33.6735 8.04571 39.0645 -17.1059 5.90457 49.1866 -4.25646 26.4901 -112.453 -13.0173 -159.836 0.348555 13.8923 -2.95771 131.861 -4.79371 115.227 97.1531 -20.0219 -17.7345 -7.99322 12.2487 -79.747 2.94056 -11.9491 19.889 -8.83585 -11.0808 20.3715 -30.994 -17.3074 15.5048 -10.9814 -17.3075 15.5048 98.9269 15.0395 -108.092 67.2609 38.4823 3.69983 -47.3471 53.1556 -133.539 0.0778292 -0.459181 -68.6108 -86.264 -9.23389 72.9736 14.3436 26.0068 -46.5271 -26.602 -33.1553 -0.0460758 -9.23664 0.0407487 -6.55814 -10.6651 39.1746 -111.477 -5.40758 60.0126 131.371 
-381.895 47.8871 409.039 -102.004 -35.3524 176.203 -174.241 67.7694 38.7297 6.35246 -35.4017 10.8355 36.6462 -18.1386 4.0185 50.7339 -4.30143 27.1731 61.5645 11.0075 -20.7259 -2.40397 20.8777 6.69183 73.073 8.53549 -111.489 93.5926 -12.3418 -5.0401 -7.97685 12.2079 -79.7699 3.02087 -11.9189 19.86 -8.75532 -11.0518 20.3414 -30.9134 -17.2702 15.4858 -10.9007 -17.2702 15.4859 99.2075 16.4043 -108.443 62.275 45.0032 11.6807 -33.6446 51.2597 -146.419 0.0487035 -0.437125 -68.108 -86.6625 -9.68987 72.1226 29.1462 29.1108 -52.1252 -37.332 -39.7974 -0.0679018 -9.04444 0.0506773 -6.79217 -30.4369 47.525 -91.6526 26.8464 75.4091 105.868 
